0
SECTION
2
HEADER
9
$INSUNITS
70
4
9
$ACADVER
1
AC1014
9
$HANDSEED
5
FFFF
0
ENDSEC
0
SECTION
2
TABLES
0
TABLE
2
VPORT
5
8
100
AcDbSymbolTable
0
ENDTAB
0
TABLE
2
LTYPE
5
5
100
AcDbSymbolTable
0
LTYPE
5
14
100
AcDbSymbolTableRecord
100
AcDbLinetypeTableRecord
2
BYBLOCK
70
0
0
LTYPE
5
15
100
AcDbSymbolTableRecord
100
AcDbLinetypeTableRecord
2
BYLAYER
70
0
0
ENDTAB
0
TABLE
2
LAYER
5
2
100
AcDbSymbolTable
70
2
0
LAYER
5
50
100
AcDbSymbolTableRecord
100
AcDbLayerTableRecord
2
0
70
0
6
CONTINUOUS
0
ENDTAB
0
TABLE
2
STYLE
5
3
100
AcDbSymbolTable
70
1
0
STYLE
5
11
100
AcDbSymbolTableRecord
100
AcDbTextStyleTableRecord
2
STANDARD
70
0
0
ENDTAB
0
TABLE
2
VIEW
5
6
100
AcDbSymbolTable
70
0
0
ENDTAB
0
TABLE
2
UCS
5
7
100
AcDbSymbolTable
70
0
0
ENDTAB
0
TABLE
2
APPID
5
9
100
AcDbSymbolTable
70
2
0
APPID
5
12
100
AcDbSymbolTableRecord
100
AcDbRegAppTableRecord
2
ACAD
70
0
0
ENDTAB
0
TABLE
2
DIMSTYLE
5
A
100
AcDbSymbolTable
70
1
0
ENDTAB
0
TABLE
2
BLOCK_RECORD
5
1
100
AcDbSymbolTable
70
1
0
BLOCK_RECORD
5
1F
100
AcDbSymbolTableRecord
100
AcDbBlockTableRecord
2
*MODEL_SPACE
0
BLOCK_RECORD
5
1B
100
AcDbSymbolTableRecord
100
AcDbBlockTableRecord
2
*PAPER_SPACE
0
ENDTAB
0
ENDSEC
0
SECTION
2
BLOCKS
0
BLOCK
5
20
100
AcDbEntity
100
AcDbBlockBegin
2
*MODEL_SPACE
0
ENDBLK
5
21
100
AcDbEntity
100
AcDbBlockEnd
0
BLOCK
5
1C
100
AcDbEntity
100
AcDbBlockBegin
2
*PAPER_SPACE
0
ENDBLK
5
1D
100
AcDbEntity
100
AcDbBlockEnd
0
ENDSEC
0
SECTION
2
ENTITIES
0
LWPOLYLINE
5
100
100
AcDbEntity
8
0
100
AcDbPolyline
90
6
70
1
43
0.0
10
70.000001043082122
20
-20.000000298023224
10
70.000001043081298
20
6.7993879829958683e-16
10
23.500000350177292
20
100.00000000000155
10
-13.500000201169701
20
100
10
-50.000000000000824
20
6.7993879829958683e-16
10
-49.999999999999993
20
-20.000000298028272
0
CIRCLE
5
101
100
AcDbEntity
8
0
100
AcDbCircle
10
15.00000005587858
20
33.954999999999991
30
0
40
2.5000000000000022
210
0
220
4.8572450722262494e-44
230
1
0
CIRCLE
5
102
100
AcDbEntity
8
0
100
AcDbCircle
10
14.999999999999226
20
55.969999999999999
30
0
40
2.5
210
0
220
4.8572450722262494e-44
230
1
0
CIRCLE
5
103
100
AcDbEntity
8
0
100
AcDbCircle
10
-26.000000387430187
20
-10.000000149013633
30
0
40
2.5
210
0
220
4.8572450722262494e-44
230
1
0
CIRCLE
5
104
100
AcDbEntity
8
0
100
AcDbCircle
10
46.00000104308171
20
-10.000000149012616
30
0
40
2.5
210
0
220
4.8572450722262494e-44
230
1
0
CIRCLE
5
105
100
AcDbEntity
8
0
100
AcDbCircle
10
22.000001043081699
20
-10.000000149013122
30
0
40
2.4999999999999978
210
0
220
4.8572450722262494e-44
230
1
0
CIRCLE
5
106
100
AcDbEntity
8
0
100
AcDbCircle
10
4.8771613943836009e-15
20
-10.000000149011612
30
0
40
2.5
210
0
220
4.8572450722262494e-44
230
1
0
CIRCLE
5
107
100
AcDbEntity
8
0
100
AcDbCircle
10
14.999999999999616
20
77.984999999999999
30
8.8817841970012523e-15
40
2.4999999999999978
210
0
220
4.8572450722262494e-44
230
1
0
CIRCLE
5
108
100
AcDbEntity
8
0
100
AcDbCircle
10
-5.0000000745048814
20
77.984999999999161
30
0
40
2.4999999999999991
210
0
220
4.8572450722262494e-44
230
1
0
CIRCLE
5
109
100
AcDbEntity
8
0
100
AcDbCircle
10
-5.0000000745039603
20
55.970000283559962
30
0
40
2.5000000000000022
210
0
220
4.8572450722262494e-44
230
1
0
CIRCLE
5
110
100
AcDbEntity
8
0
100
AcDbCircle
10
-5.000000074503042
20
33.95499999999916
30
0
40
2.5
210
0
220
4.8572450722262494e-44
230
1
0
CIRCLE
5
111
100
AcDbEntity
8
0
100
AcDbCircle
10
15.00000005587858
20
33.954999999999991
30
0
40
2.5000000000000022
210
0
220
-4.8572450722262494e-44
230
1
0
CIRCLE
5
112
100
AcDbEntity
8
0
100
AcDbCircle
10
14.999999999999226
20
55.969999999999999
30
0
40
2.5
210
0
220
-4.8572450722262494e-44
230
1
0
CIRCLE
5
113
100
AcDbEntity
8
0
100
AcDbCircle
10
-26.000000387430187
20
-10.000000149013633
30
0
40
2.5
210
0
220
-4.8572450722262494e-44
230
1
0
LWPOLYLINE
5
114
100
AcDbEntity
8
0
100
AcDbPolyline
90
6
70
1
43
0.0
10
70.000001043082122
20
-20.000000298023224
10
70.000001043081298
20
0
10
23.500000350177295
20
100.00000000000155
10
-13.500000201169705
20
100
10
-50.000000000000824
20
0
10
-49.999999999999993
20
-20.000000298028272
0
CIRCLE
5
115
100
AcDbEntity
8
0
100
AcDbCircle
10
46.00000104308171
20
-10.000000149012616
30
0
40
2.5
210
0
220
-4.8572450722262494e-44
230
1
0
CIRCLE
5
116
100
AcDbEntity
8
0
100
AcDbCircle
10
22.000001043081699
20
-10.000000149013122
30
0
40
2.4999999999999978
210
0
220
-4.8572450722262494e-44
230
1
0
CIRCLE
5
117
100
AcDbEntity
8
0
100
AcDbCircle
10
4.8771613943836009e-15
20
-10.000000149011612
30
0
40
2.5
210
0
220
-4.8572450722262494e-44
230
1
0
CIRCLE
5
118
100
AcDbEntity
8
0
100
AcDbCircle
10
14.999999999999616
20
77.984999999999999
30
8.8817841970012523e-15
40
2.4999999999999978
210
0
220
-4.8572450722262494e-44
230
1
0
CIRCLE
5
119
100
AcDbEntity
8
0
100
AcDbCircle
10
-5.0000000745048814
20
77.984999999999161
30
0
40
2.4999999999999991
210
0
220
-4.8572450722262494e-44
230
1
0
CIRCLE
5
120
100
AcDbEntity
8
0
100
AcDbCircle
10
-5.0000000745039603
20
55.970000283559962
30
0
40
2.5000000000000022
210
0
220
-4.8572450722262494e-44
230
1
0
CIRCLE
5
121
100
AcDbEntity
8
0
100
AcDbCircle
10
-5.000000074503042
20
33.95499999999916
30
0
40
2.5
210
0
220
-4.8572450722262494e-44
230
1
0
ENDSEC
0
SECTION
2
OBJECTS
0
DICTIONARY
5
C
100
AcDbDictionary
3
ACAD_GROUP
350
D
3
ACAD_MLINESTYLE
350
17
0
DICTIONARY
5
D
100
AcDbDictionary
0
DICTIONARY
5
1A
330
C
100
AcDbDictionary
0
DICTIONARY
5
17
100
AcDbDictionary
0
ENDSEC
0
EOF
